<?xml version="1.0" encoding="UTF-8"?><svg id="Layer_1" xmlns="http://www.w3.org/2000/svg" width="324" height="178.89" viewBox="0 0 324 178.89"><defs><style>.cls-1{fill:#e6e7e8;opacity:.4;}.cls-1,.cls-2,.cls-3,.cls-4{stroke-width:0px;}.cls-3{fill:#3b2612;}.cls-4{fill:#ddc4a7;}</style></defs><ellipse class="cls-3" cx="183.82" cy="28.42" rx="127.15" ry="21.09"/><path class="cls-2" d="M262.52,56.79c-.17-.17-.33-.36-.48-.54.15.16.3.32.45.49l.03.05Z"/><path class="cls-2" d="M198.67,19.96l3.5,5.6c.27.43.27,1.04-.87,1.15-.81.07-1.53-.2-2.01-.46-3.3-1.8-3.42-4.36-.29-6.2"/><path class="cls-2" d="M201.82,16.71l-1.31,3.28c-.1.25-.1.61.33.67.3.04.57-.12.75-.27,1.23-1.05,1.28-2.55.11-3.63"/><path class="cls-4" d="M182.98,44.68c-122.06-2.13-126.25-36.08-127.63-10.63C20.23,33.61.43,53.83,6.57,87.88c4.84,26.8,32.67,34.02,56.74,29.64,19.92,53.48,71.17,51.55,124.33,51.55,71.18,0,122.58,6.91,125.09-127.21.74-39.28,2.16,5.12-129.75,2.82ZM15.58,81.96c-4.6-26.39,21.62-37.04,39.5-41.91-.03.58-.06,1.19-.09,1.81-1.35,28.25.75,50.23,5.6,67.33-18.9.7-40.84-3.31-45.01-27.23Z"/><path class="cls-1" d="M304.06,69.07c-2.13,9.55-14.28,40.81-18.45,49.67-3.98,8.45-8.78,18.27-15.84,24.61-7.13,6.4-17.47,7.29-26.57,8.32-10.93,1.24-46.92,6.78-57.78,4.46-6.28-1.34,15.95,3.83,22.25,5.17,12.45,2.66,24.9,1.61,37.44.15,10.25-1.19,20.93-2.57,29.36-9.05,8.42-6.47,14.01-16.89,18.64-26.24,5.12-10.34,8.94-21.25,11.45-32.51,1.4-6.27.9-30.87-.5-24.58Z"/><path class="cls-1" d="M74.94,106.3c-3.22-12.18-6.92-22.26-7.09-34.89-.18-13.03-.09-26.07-.01-39.1.05-7.26-10.04-7.27-10.09,0-.09,14.48-.19,28.96.08,43.44.24,13.08,2.14,25.26,8.4,36.24,20.04,35.19,18.14,29.96,8.71-5.7Z"/><path class="cls-1" d="M87.9,141.92c-1.19-1.08-2.38-2.16-3.57-3.25-1.07-.97-1.67-1.06-.79.58.75,1.4,2.48,3.87,3.62,4.91,1.19,1.08,2.38,2.16,3.57,3.25,1.07.97,1.67,1.06.79-.58-.75-1.4-2.48-3.87-3.62-4.91Z"/><path class="cls-1" d="M305.6,57.75c-.18-1.6-.35-3.2-.53-4.8-.16-1.43-.55-1.9-.98-.09-.37,1.54-.71,4.55-.54,6.08.18,1.6.35,3.2.53,4.8.16,1.43.55,1.9.98.09.37-1.54.71-4.55.54-6.08Z"/></svg>