<?xml version="1.0" encoding="UTF-8"?><svg id="Layer_1" xmlns="http://www.w3.org/2000/svg" width="120" height="412" viewBox="0 0 120 412"><defs><style>.cls-1{fill:#603813;stroke-width:0px;}</style></defs><path class="cls-1" d="M106.11,364.7c.15-.46.3-.91.46-1.36-.58-.82-1.12-1.7-1.6-2.63-.57-.66-1.11-1.37-1.63-2.14-.12-.17-.24-.36-.35-.54-.11-.16-.22-.33-.32-.5,0-.02-.02-.03-.03-.05-.19-.32-.34-.66-.47-.98-.94-.84-1.45-2.12-1.6-3.47-.79-1.57-1.44-3.25-1.96-5-.08-.26-.15-.52-.22-.78-.11-.39-.22-.79-.31-1.19-.03-.12-.06-.24-.09-.36-.1-.41-.19-.83-.28-1.24-.06-.29-.12-.57-.17-.85-.11-.53-.2-1.06-.28-1.6v-.04c-.55-3.44-.78-7-.86-10.46-.14-5.84.38-11.65.2-17.49-.26-8.02-1.66-15.75-3.82-23.18-.07-.25-.12-.48-.17-.71-.21-.34-.42-.67-.62-1.01-.48-.8-.92-1.62-1.35-2.45-.15-.27-.28-.55-.41-.84-4.9-10.12-6.31-22.73-6.52-35.06l-8.42-23.52c.05-.1.09-.21.13-.32-.41-.73-.67-1.66-.71-2.79,0-.2-.01-.41-.01-.61-.77-.8-1.29-2.06-1.27-3.81.11-10.35,2.11-20.56,1.91-30.91-.14-6.8-2.32-12.97-3.85-19.36-4.17-5.51-6.83-12.94-7.19-21.65-.03-.67-.04-1.34-.04-2.02v-.22c0-.32,0-.64.01-.96,0-.25.01-.49.02-.74.03-.91.09-1.82.17-2.75.12-1.23.48-2.22.99-2.98.37-5.15.36-10.34,0-15.5-.94-1.01-1.86-2.04-2.74-3.12-11.31-13.87-14.62-31.23-15.32-48.71-.01-.25,0-.48.02-.71-1.83-2.57-3.78-5.01-5.86-7.3-.73-5.32-2.06-10.47-3.98-15.28-.68-4.49-1.44-8.93-2.52-13.05-1.93-7.3-5.18-13.89-9.28-19.2-2.07-2.68-4.37-5.05-6.83-7.02-.98-.78-2.26-2.15-3.44-2.18-1.37-.04-2.48,1.89-3.46,2.95-1.12,1.2-3.19,2.45-3.86,4.25-.59,1.6.56,4.64,1.91,4.75.25.02.49.03.73.01-.07.19-.13.39-.19.6-2.27,8.14.67,18.6,4.72,24.4,2.63,3.8,6.1,6.49,9.21,4.72.02-.01.05-.03.07-.05,2.26,15.66,1.36,32.29-2.67,48.6-.91,3.7-2,7.53-1.36,11.04.65,3.51,3.68,6.51,7.26,5.59,3.31-.85,5.52-4.43,7.04-7.68,1.55-3.31,2.85-6.7,3.9-10.14l-.1,1.21c-.92,11.86-.85,24.21,2.92,35.21,1.47,4.28,3.6,8.31,6.22,11.69-.43.07-.85.2-1.27.4-4.64,2.26-6.3,13.84-3.21,20.2,2.06,4.26,5.56,5.67,8.71,4.48l3.59,41.19c-2.47,6.7-1.04,17.15,2.71,22.57,1.07,1.53,2.26,2.66,3.53,3.4-.2.82-.36,1.64-.48,2.43-2.02,13.8-3.41,30.44,4.21,39.82l.4-.55c-.02,3.62-.04,7.23-.07,10.85-.02,3.9-.01,8,1.32,11.44,2.28,5.89,7.73,7.61,12.53,5.92-.05,2.36-.09,4.71-.13,7.07.94.47,1.76,1.47,2.17,3.12,3.11,12.56-.4,24.66-1.92,37.11-.15,1.21-.53,2.09-1.03,2.68-.03,1.76-.07,3.52-.09,5.28-.12,6.99,1.44,16.38,5.96,17.37.35,5.17.28,10.64.78,15.74.72,7.26,3.37,14.46,7.25,13.49,2.8-.7,5.22-5.51,6.56-10.66,1.34-5.11,1.89-10.69,2.8-16.06,4.77.22,9.13-9.57,5.05-13.42l-1.07-2.39ZM41.12,67.64c-.17-.65-.33-1.31-.49-1.97l.57,1.12-.07.85Z"/><path class="cls-1" d="M21.54,115.64l-2.85,12.05c-.22.93-.22,2.25.71,2.47.66.15,1.25-.43,1.63-.98,2.68-3.87,2.78-9.37.24-13.34"/><path class="cls-1" d="M68.03,130.96l5.27,8.25c.41.64.7,1.62-.08,2.04-.56.29-1.22.02-1.69-.3-3.29-2.18-4.61-6.26-3.21-9.92"/><path class="cls-1" d="M72.41,308.95c-.95,4.02-1.9,8.03-2.85,12.05-.22.93-.22,2.25.71,2.47.66.15,1.25-.43,1.63-.98,2.68-3.87,2.78-9.37.24-13.34"/></svg>