<?xml version="1.0" encoding="UTF-8"?><svg id="Layer_1" xmlns="http://www.w3.org/2000/svg" width="247" height="321.7" viewBox="0 0 247 321.7"><defs><style>.cls-1{fill:#31271b;}.cls-1,.cls-2{stroke-width:0px;}.cls-2{fill:#e6e7e8;}</style></defs><path class="cls-1" d="M242.02,23.3l-2.17,18.62-24.82,17.09-34.28,109.77h.11s.03,18.63.03,18.63l-1.22-.02,60.54,128.28-204.62-.72,61.87-130.55-.03-16.43h1.11S62.7,51.35,62.7,51.35l-27.32,1.3,9.82,91,23.44,13.46c2.55,1.46,3.3,4.48,1.73,6.74l-8.09,11.63c-2.41,3.47-7.52,4.5-11.41,2.26l-26.41-15.17c-2.42-1.39-4.09-3.48-4.85-5.82l-1.62.13L5.62,42.09c-.59-5.25,3.68-9.86,9.47-10.31l16.95-1.29-.05-.69,23.75-1.16-.18-.55,72.33-1.44-6.6-23.16,30.23-.32-7.28,23.16,62.15-1.25.03-.38,35.57-1.39Z"/><polygon class="cls-2" points="111.81 154.94 107.05 130.87 88.17 65.42 79.98 50.2 111.81 154.94"/><polygon class="cls-2" points="129.12 154.59 128.96 130.19 122.66 62.93 117.44 46.7 129.12 154.59"/><polygon class="cls-2" points="146.56 154.63 150.18 130.49 154.35 63.21 151.7 46.52 146.56 154.63"/><polygon class="cls-2" points="164.26 154.32 170.51 130.66 182.05 64.17 181.23 47.34 164.26 154.32"/><polygon class="cls-2" points="209.65 304.99 200.78 271.28 174.05 198.08 164 181.15 209.65 304.99"/><polygon class="cls-2" points="168.07 305.6 165.86 278.84 152.69 198.63 146.12 181.07 168.07 305.6"/><polygon class="cls-2" points="118.86 304.96 122.94 280.89 127.18 206.98 124.84 190.25 118.86 304.96"/><polygon class="cls-2" points="65.46 304.51 77.4 280.31 103.76 204.62 108.28 193.29 65.46 304.51"/></svg>