<?xml version="1.0" encoding="UTF-8"?><svg id="Layer_1" xmlns="http://www.w3.org/2000/svg" width="805" height="549.61" viewBox="0 0 805 549.61"><defs><style>.cls-1{fill:#c69c6d;}.cls-1,.cls-2,.cls-3{opacity:.4;}.cls-1,.cls-2,.cls-3,.cls-4,.cls-5,.cls-6,.cls-7,.cls-8,.cls-9,.cls-10{stroke-width:0px;}.cls-2{fill:#a67c52;}.cls-3{fill:#76695d;}.cls-4{fill:#adadae;opacity:.5;}.cls-5{fill:#393a3a;}.cls-6{fill:#af9c87;}.cls-7{fill:#bfbfbf;}.cls-8{fill:#737474;}.cls-9{fill:#fff;}.cls-10{fill:#e8d7c5;}</style></defs><path class="cls-4" d="M619.46,358.65l-420.29-93.4L19.73,389.61c-12.72,9.63-17.7,27.78-9.62,35.07l381.69,112.01c5.95,5.37,25.64-22.12,35.02-29.19l192.63-148.85Z"/><path class="cls-8" d="M792.62,227l-533.55-81.53,72.85,92.08,236.69,123.7c.57-.07,1.18-.06,1.83.09,8.98,1.96,18.06,3.45,27.1,5.08,3.06-2.51,6.57-4.18,10.43-5.08.16-.04.32-.06.48-.09,1.71-1.12,3.36-2.16,4.87-2.84l180.86-117.38c4.91-3.26,4.45-12.87-1.57-14.03Z"/><polygon class="cls-6" points="581.72 360.56 325.69 246.83 251.79 146.7 789.51 226.47 581.72 360.56"/><path class="cls-8" d="M533.32,224.88l99,19.7c5.62,1.3,10.15,3.69,16.21-5.01l8.02-9.45c5.43-3.52,4.68-11.9-1.18-13.13l-102.37-19.32c-1.96-.41-1.87-1.58-3.56-.18l-17.91,14.82c-4.67,3.86-3.6,11.32,1.79,12.57Z"/><path class="cls-5" d="M612.37,352.87h0c1.16,1.84,3.56,2.38,5.37,1.19l17.58-11.56c1.8-1.19,2.32-3.64,1.16-5.48h0c-1.16-1.84-3.56-2.38-5.37-1.19l-17.58,11.56c-1.8,1.19-2.32,3.64-1.16,5.48Z"/><path class="cls-5" d="M640.15,333.81l.61,1c.86,1.4,2.67,1.83,4.04.95l18.68-11.93c1.37-.88,1.79-2.73.93-4.13l-.61-1c-.86-1.4-2.67-1.83-4.04-.95l-18.68,11.93c-1.37.88-1.79,2.73-.93,4.13Z"/><path class="cls-5" d="M687.7,308.81l-2.41,1.53c-1.8,1.14-4.3.73-5.59-.92h0c-1.29-1.65-.87-3.91.92-5.05l2.41-1.53c1.8-1.14,4.3-.73,5.59.92h0c1.29,1.65.87,3.91-.92,5.05Z"/><path class="cls-5" d="M675.87,315.74l-2.41,1.53c-1.8,1.14-4.3.73-5.59-.92h0c-1.29-1.65-.87-3.91.92-5.05l2.41-1.53c1.8-1.14,4.3-.73,5.59.92h0c1.29,1.65.87,3.91-.92,5.05Z"/><polygon class="cls-3" points="585.99 346.9 315.74 241.86 243.33 148.93 752.5 234 585.99 346.9"/><path class="cls-8" d="M567.87,364.76c.84.21,1.67.4,2.51.6l24.13,4.33c1.87-1.63,3.91-2.89,6.08-3.82l-62.63-289.95c-2.1-8.85-11.39-20.94-19.2-21.87L149.27,12.23c-.33.08-.66.13-.99.12-.89,0-1.78.01-2.67.09-.24.02-1.73.11-.54.04-.41.02-.84.14-1.25.22-.19.03-.36.04-.55.06-14.37,6.91-17.32,11.02-19.79,26.55l50.65,199.56,392.18,125.76c.48-.05,1-.01,1.54.12Z"/><polygon class="cls-8" points="527.69 236.5 630.14 260.74 637.78 252.47 537.43 229.83 527.69 236.5"/><polygon class="cls-8" points="632.75 261.68 646.34 264.78 655.72 256.25 641.69 253.37 632.75 261.68"/><polygon class="cls-8" points="648.61 265.37 662.2 268.48 671.57 259.95 657.55 257.07 648.61 265.37"/><polygon class="cls-8" points="664.57 269.18 678.16 272.29 687.53 263.76 673.51 260.88 664.57 269.18"/><polygon class="cls-8" points="555.14 255.76 568.74 258.86 578.11 250.34 564.08 247.46 555.14 255.76"/><polygon class="cls-8" points="571 259.46 584.59 262.56 593.96 254.03 579.94 251.15 571 259.46"/><polygon class="cls-8" points="586.96 263.27 600.55 266.37 609.93 257.84 595.9 254.96 586.96 263.27"/><polygon class="cls-8" points="603.03 267.19 616.62 270.3 626 261.77 611.97 258.89 603.03 267.19"/><polygon class="cls-8" points="618.89 270.89 632.48 273.99 641.85 265.47 627.83 262.59 618.89 270.89"/><polygon class="cls-8" points="634.85 274.7 648.44 277.8 657.81 269.28 643.79 266.4 634.85 274.7"/><polygon class="cls-8" points="554.59 269.15 568.18 272.26 577.55 263.73 563.53 260.85 554.59 269.15"/><polygon class="cls-8" points="570.45 272.85 584.04 275.95 593.41 267.43 579.39 264.54 570.45 272.85"/><polygon class="cls-8" points="586.41 276.66 600 279.76 609.37 271.24 595.35 268.36 586.41 276.66"/><polygon class="cls-8" points="602.91 280.82 616.5 283.92 625.87 275.4 611.85 272.51 602.91 280.82"/><polygon class="cls-8" points="618.77 284.51 632.36 287.62 641.73 279.09 627.7 276.21 618.77 284.51"/><polygon class="cls-8" points="565.47 285.17 579.06 288.27 588.44 279.75 574.41 276.87 565.47 285.17"/><polygon class="cls-8" points="581.33 288.87 594.92 291.97 604.29 283.44 590.27 280.56 581.33 288.87"/><polygon class="cls-8" points="597.29 292.68 610.88 295.78 620.25 287.26 606.23 284.37 597.29 292.68"/><polygon class="cls-8" points="613.36 296.6 626.95 299.71 636.32 291.18 622.3 288.3 613.36 296.6"/><polygon class="cls-8" points="629.22 300.3 642.81 303.4 652.18 294.88 638.15 292 629.22 300.3"/><polygon class="cls-8" points="562.98 297.63 576.57 300.74 585.94 292.21 571.92 289.33 562.98 297.63"/><polygon class="cls-8" points="578.84 301.33 592.43 304.43 601.8 295.91 587.78 293.03 578.84 301.33"/><polygon class="cls-8" points="594.8 305.14 608.39 308.24 617.76 299.72 603.74 296.84 594.8 305.14"/><polygon class="cls-8" points="573 312.96 586.59 316.06 595.97 307.54 581.94 304.66 573 312.96"/><polygon class="cls-8" points="588.86 316.66 602.45 319.76 611.82 311.24 597.8 308.35 588.86 316.66"/><polygon class="cls-8" points="604.61 320.47 618.2 323.57 627.57 315.04 613.54 312.16 604.61 320.47"/><polygon class="cls-8" points="650.92 278.63 664.51 281.73 673.88 273.2 659.86 270.32 650.92 278.63"/><polygon class="cls-8" points="572.13 325.78 585.72 328.89 595.09 320.36 581.07 317.48 572.13 325.78"/><polygon class="cls-8" points="588.09 329.59 601.68 332.7 611.06 324.17 597.03 321.29 588.09 329.59"/><polygon class="cls-8" points="612.35 309.63 629.93 313.8 638.64 304.44 621.02 300.73 612.35 309.63"/><polygon class="cls-8" points="635.8 288.42 653.39 292.59 662.09 283.23 644.48 279.52 635.8 288.42"/><path class="cls-10" d="M588.75,369.71l-409.1-95.31L122.61,36.47c-3.23-17.43,9.91-34.18,25.39-32.38l361.43,42.15c11.41,1.33,20.52,10.68,22.93,23.51l56.39,299.96Z"/><path class="cls-7" d="M330.4,144.78c-.23-2.85,1.55-5.43,3.45-7.5,1.17-1.27,2.42-2.45,3.69-3.61.06-.06.12-.11.2-.12.29-.04.31.42.29.72-.05.73.42,1.37.82,1.96.72,1.07,1.29,2.29,1.43,3.58.31,2.75-1.3,5.29-2.83,7.55-1,1.48-2.02,2.98-3.38,4.11l.17-.23c-1.84-1.76-3.64-3.88-3.84-6.46Z"/><path class="cls-7" d="M366.6,186.57c-5.57,9.92-17.49,15.54-30,10.91-.5-.18-.99-.38-1.47-.61-3.38,1.84-7.22,2.88-11.3,2.88-13.46,0-24.37-11.29-24.37-25.23,0-13.93,10.91-25.23,24.36-25.23,3.66,0,7.13.83,10.24,2.33,3.42-1.89,7.31-2.96,11.46-2.96,6.37,0,12.16,2.52,16.5,6.66,1.25,1.19.72,3.34-.91,3.81-6.26,1.81-10.8,7.12-10.79,13.39,0,7.76,6.95,14.04,15.52,14.04h.76Z"/><path class="cls-9" d="M324.96,139.85c.04-2.86,2.05-5.26,4.14-7.14,1.28-1.15,2.64-2.21,4.02-3.25.07-.05.13-.1.22-.1.29-.01.27.44.22.74-.12.72.29,1.4.63,2.03.61,1.14,1.07,2.4,1.09,3.7.05,2.76-1.79,5.14-3.53,7.25-1.14,1.38-2.3,2.77-3.75,3.77l.19-.21c-1.66-1.93-3.26-4.21-3.22-6.8Z"/><path class="cls-9" d="M357.04,184.88c-6.48,9.35-18.88,13.82-30.89,8.03-.48-.23-.95-.48-1.4-.74-3.54,1.51-7.46,2.18-11.53,1.8-13.4-1.27-23.19-13.54-21.88-27.41s13.24-24.09,26.63-22.82c3.64.35,7.02,1.5,9.98,3.29,3.58-1.56,7.56-2.26,11.69-1.87,6.34.6,11.87,3.66,15.8,8.19,1.13,1.3.41,3.39-1.27,3.71-6.4,1.21-11.42,6.06-12.01,12.31-.73,7.72,5.59,14.64,14.12,15.45l.76.07Z"/><path class="cls-1" d="M589.94,366.63c-7.83-55.01-25.31-138.27-39.49-192-1.64-6.22,1.63,31.74,3.27,37.97,13.48,51.05,14.51,90.51,22.26,142.73,10.48,9.17-41.42-7.81-62.95-10.53-24.93-3.15-49.62-6.76-74.11-12.43-50.01-11.58-99.43-26.1-148.99-39.43-28.17-7.58-68.79-12.53-96.96-20.11-6.22-1.67,3.56,5.35,9.78,7.02,49.94,13.43,102.65,22.76,152.59,36.19,48.8,13.12,97.74,28.93,147.97,35.36,27.52,3.52,51.81,8.35,78.48,16.36,4.03,1.21,8.66,2.42,8.16-1.13Z"/><path class="cls-2" d="M249.75,19.78c16.29,4.75-8.57,1.91-9.89,1.8-6.06-.51,4.09-3.49,9.89-1.8Z"/><path class="cls-1" d="M149.5,5.83c-3.41-.65-12.33,3.59-15.5,5.33-6.57,3.6-10.24,13.47-9.2,19.86,1.6,9.84,3.55,17.32,5.33,27.13,3.65,20.09,11.54,42.51,15.33,62.58,1.72,9.09,3.75,18.07,6.57,26.89,3.01,9.44,6.54,18.82,7.39,28.76.54,6.36,10.02,36.43,9.47,30.01-1.5-17.57-8.76-63.88-12.35-81.06-3.73-17.84-6.64-35.87-9.89-53.79-1.66-9.16-3.32-18.32-4.99-27.47-.83-4.58-3.94-8.46-4.74-13.04-.42-2.41-3.86-9.38-.97-10.66,1.45-.64,2.85-4.17,4.36-3.88,1.81.36,5.65-3.32,12.11-1.94,6.78,1.45,11.5,1.68,15.64,1.47,9.75-.48,16,1.99,25.07,2.15,38.27.68,69.48,3.58-3.79-5.61"/></svg>